<svg xmlns="http://www.w3.org/2000/svg" viewBox="0 0 151 29"><g xmlns="http://www.w3.org/2000/svg" fill="none"><path fill="#FF0558" d="M73.424 14.64h-3.622V6.134h-4.7v21.587h4.7v-8.591h3.622v8.591h4.7V6.135h-4.7v8.504ZM37.847 10.627h3.795v17.095h4.7V10.627h3.58V6.135H37.847v4.492ZM28.403 6.135l-3.795 21.587h4.57l.514-3.489h4.33l.504 3.49h4.614L35.303 6.134h-6.9Zm1.867 14.173 1.324-8.983h.56l1.3 8.983H30.27Z"/><path fill="#FF0558" fill-rule="evenodd" d="m20.309 0-1.407 20.65-.378.02-3.346-14.61h-4.134L8.54 21.199l-.537.029L5.764 6.06H0l5.243 22.577 5.861-.39 1.907-14.015.56-.03 2.553 13.706 5.61-.377L26.189 0h-5.88Z" clip-rule="evenodd"/><path fill="#FF0558" d="M57.166 5.917c-4.226 0-6.253 2.311-6.253 5.888v10.248c0 3.576 2.027 5.887 6.253 5.887 4.227 0 6.253-2.311 6.253-5.887v-3.707h-4.7v4.143c0 1.134-.431 1.526-1.553 1.526-1.12 0-1.552-.392-1.552-1.526v-11.12c0-1.134.431-1.527 1.552-1.527 1.122 0 1.553.393 1.553 1.526v2.442h4.7v-2.005c0-3.577-2.026-5.888-6.253-5.888ZM83.04 6.135l-3.794 21.587h4.571l.513-3.489h4.33l.505 3.49h4.614L89.94 6.134h-6.9Zm1.868 14.173 1.324-8.983h.56l1.3 8.983h-3.184Z"/><path fill="#292A32" d="M125.686 6.135h-4.743v21.587h4.743c2.674 0 4.442-1.047 5.305-2.965.517-1.134.647-2.18.647-7.85 0-5.626-.13-6.672-.647-7.806-.863-1.92-2.631-2.966-5.305-2.966Zm2.674 17.4c-.431 1.047-1.337 1.614-2.932 1.614h-1.682V8.71h1.682c1.595 0 2.501.566 2.932 1.613.345.741.431 1.395.431 6.629 0 5.19-.086 5.843-.431 6.585ZM147.076 6.135h-4.269l-3.968 21.587h2.803l.69-4.36h5.175l.733 4.36H151l-3.924-21.587Zm-4.312 14.784 2.113-12.516h.086l2.113 12.516h-4.312ZM136.812 6.135h-2.803v21.587h2.803V6.135ZM103.952 6.135h-5.089v21.587h2.76V17.648h2.329c2.156 0 3.536-.61 4.14-1.962.302-.785.388-1.396.388-3.794 0-2.399-.086-3.053-.388-3.75-.604-1.396-1.984-2.007-4.14-2.007Zm1.509 7.98c-.302.786-1.035.96-2.199.96h-1.639V8.534h1.639c1.164 0 1.897.218 2.199.96.173.392.216.61.216 2.31 0 1.658-.043 1.963-.216 2.312ZM110.507 27.722h7.848V25.15h-5.045v-7.588h4.916v-2.573h-4.916v-6.28h5.045V6.135h-7.848v21.587Z"/></g></svg>